<?xml version="1.0" encoding="UTF-8" standalone="no"?>
<!-- Created with Inkscape (http://www.inkscape.org/) -->

<svg
   width="640"
   height="525"
   viewBox="0 0 169.33333 138.90625"
   version="1.1"
   id="svg5"
   xml:space="preserve"
   inkscape:version="1.2.1 (9c6d41e410, 2022-07-14)"
   sodipodi:docname="logo.svg"
   inkscape:export-filename="logo.png"
   inkscape:export-xdpi="96"
   inkscape:export-ydpi="96"
   xmlns:inkscape="http://www.inkscape.org/namespaces/inkscape"
   xmlns:sodipodi="http://sodipodi.sourceforge.net/DTD/sodipodi-0.dtd"
   xmlns="http://www.w3.org/2000/svg"
   xmlns:svg="http://www.w3.org/2000/svg"><sodipodi:namedview
     id="namedview7"
     pagecolor="#ffffff"
     bordercolor="#666666"
     borderopacity="1.0"
     inkscape:showpageshadow="2"
     inkscape:pageopacity="0.0"
     inkscape:pagecheckerboard="0"
     inkscape:deskcolor="#d1d1d1"
     inkscape:document-units="px"
     showgrid="false"
     inkscape:zoom="0.53858859"
     inkscape:cx="318.42486"
     inkscape:cy="275.72066"
     inkscape:window-width="1350"
     inkscape:window-height="1032"
     inkscape:window-x="137"
     inkscape:window-y="21"
     inkscape:window-maximized="0"
     inkscape:current-layer="layer1" /><defs
     id="defs2"><inkscape:path-effect
       effect="powerstroke"
       id="path-effect8244"
       is_visible="true"
       lpeversion="1"
       offset_points="0.24150233,0.85003917 | 2.9363662,3.1985603 | 6.5053722,0.2456999"
       not_jump="false"
       sort_points="true"
       interpolator_type="CentripetalCatmullRom"
       interpolator_beta="0.2"
       start_linecap_type="zerowidth"
       linejoin_type="round"
       miter_limit="4"
       scale_width="1"
       end_linecap_type="zerowidth" /><inkscape:path-effect
       effect="powerstroke"
       id="path-effect8242"
       is_visible="true"
       lpeversion="1"
       offset_points="0.22725265,-2.1316543 | 2.217465,-3.0245338 | 3.5123957,-2.1690886"
       not_jump="false"
       sort_points="true"
       interpolator_type="CentripetalCatmullRom"
       interpolator_beta="0.2"
       start_linecap_type="zerowidth"
       linejoin_type="round"
       miter_limit="4"
       scale_width="1"
       end_linecap_type="zerowidth" /><inkscape:path-effect
       effect="powerstroke"
       id="path-effect8240"
       is_visible="true"
       lpeversion="1"
       offset_points="3.4614357,4.1825549"
       not_jump="false"
       sort_points="true"
       interpolator_type="CentripetalCatmullRom"
       interpolator_beta="0.2"
       start_linecap_type="zerowidth"
       linejoin_type="round"
       miter_limit="4"
       scale_width="1"
       end_linecap_type="zerowidth" /><rect
       x="272.93561"
       y="213.52106"
       width="261.79538"
       height="102.11876"
       id="rect6734" /><pattern
       patternUnits="userSpaceOnUse"
       width="7.5610583"
       height="179.86572"
       patternTransform="translate(-303.48219,-202.72767)"
       id="pattern3166"><g
         id="g3164"
         transform="matrix(3.7795276,0,0,3.7795276,303.48219,202.72767)"><path
           style="fill:none;stroke:#2600ff;stroke-width:1;stroke-linecap:butt;stroke-linejoin:miter;stroke-dasharray:none;stroke-opacity:1"
           d="M -79.79633,-53.638364 V -6.0488911"
           id="path3133" /><path
           style="fill:none;stroke:#2600ff;stroke-width:1;stroke-linecap:butt;stroke-linejoin:miter;stroke-dasharray:none;stroke-opacity:0.204955"
           d="M -78.7958,-53.638364 V -6.048891"
           id="path3133-2" /></g></pattern><pattern
       patternUnits="userSpaceOnUse"
       width="75.592554"
       height="282.21914"
       patternTransform="translate(-478.76364,118.8291)"
       id="pattern6512"><g
         id="g6510"
         transform="matrix(3.7795276,0,0,3.7795276,478.76364,-118.8291)"><path
           style="fill:none;stroke:#2600ff;stroke-width:10;stroke-linecap:butt;stroke-linejoin:miter;stroke-dasharray:none;stroke-opacity:1"
           d="m -121.67288,31.4402 v 74.67048"
           id="path6462" /><path
           style="fill:none;stroke:#2600ff;stroke-width:10;stroke-linecap:butt;stroke-linejoin:miter;stroke-dasharray:none;stroke-opacity:0"
           d="m -111.67235,31.4402 v 74.67048"
           id="path6462-4" /></g></pattern><clipPath
       clipPathUnits="userSpaceOnUse"
       id="clipPath6540"><g
         id="g6544"><rect
           width="66.632217"
           height="24.793383"
           fill="#ffffff"
           id="rect6542"
           x="65.671402"
           y="51.466217"
           style="stroke-width:0.387397" /></g></clipPath><clipPath
       clipPathUnits="userSpaceOnUse"
       id="clipPath6546"><g
         id="g6550"><rect
           width="66.632217"
           height="24.793383"
           fill="#ffffff"
           id="rect6548"
           x="65.671402"
           y="51.466217"
           style="stroke-width:0.387397" /></g></clipPath><clipPath
       clipPathUnits="userSpaceOnUse"
       id="clipPath6552"><g
         id="g6556"><rect
           width="66.632217"
           height="24.793383"
           fill="#ffffff"
           id="rect6554"
           x="65.671402"
           y="51.466217"
           style="stroke-width:0.387397" /></g></clipPath><clipPath
       clipPathUnits="userSpaceOnUse"
       id="clipPath6558"><g
         id="g6562"><rect
           width="66.632217"
           height="24.793383"
           fill="#ffffff"
           id="rect6560"
           x="65.671402"
           y="51.466217"
           style="stroke-width:0.387397" /></g></clipPath><clipPath
       clipPathUnits="userSpaceOnUse"
       id="clipPath6564"><g
         id="g6568"><rect
           width="66.632217"
           height="24.793383"
           fill="#ffffff"
           id="rect6566"
           x="65.671402"
           y="51.466217"
           style="stroke-width:0.387397" /></g></clipPath><clipPath
       clipPathUnits="userSpaceOnUse"
       id="clipPath6570"><g
         id="g6574"><rect
           width="66.632217"
           height="24.793383"
           fill="#ffffff"
           id="rect6572"
           x="65.671402"
           y="51.466217"
           style="stroke-width:0.387397" /></g></clipPath><clipPath
       clipPathUnits="userSpaceOnUse"
       id="clipPath6576"><g
         id="g6580"><rect
           width="66.632217"
           height="24.793383"
           fill="#ffffff"
           id="rect6578"
           x="65.671402"
           y="51.466217"
           style="stroke-width:0.387397" /></g></clipPath><clipPath
       clipPathUnits="userSpaceOnUse"
       id="clipPath6582"><g
         id="g6586"><rect
           width="66.632217"
           height="24.793383"
           fill="#ffffff"
           id="rect6584"
           x="65.671402"
           y="51.466217"
           style="stroke-width:0.387397" /></g></clipPath><clipPath
       clipPathUnits="userSpaceOnUse"
       id="clipPath6588"><g
         id="g6592"><rect
           width="66.632217"
           height="24.793383"
           fill="#ffffff"
           id="rect6590"
           x="65.671402"
           y="51.466217"
           style="stroke-width:0.387397" /></g></clipPath><clipPath
       clipPathUnits="userSpaceOnUse"
       id="clipPath6594"><g
         id="g6598"><rect
           width="66.632217"
           height="24.793383"
           fill="#ffffff"
           id="rect6596"
           x="65.671402"
           y="51.466217"
           style="stroke-width:0.387397" /></g></clipPath><clipPath
       clipPathUnits="userSpaceOnUse"
       id="clipPath6600"><g
         id="g6604"><rect
           width="66.632217"
           height="24.793383"
           fill="#ffffff"
           id="rect6602"
           x="65.671402"
           y="51.466217"
           style="stroke-width:0.387397" /></g></clipPath><clipPath
       clipPathUnits="userSpaceOnUse"
       id="clipPath6606"><g
         id="g6610"><rect
           width="66.632217"
           height="24.793383"
           fill="#ffffff"
           id="rect6608"
           x="65.671402"
           y="51.466217"
           style="stroke-width:0.387397" /></g></clipPath><clipPath
       clipPathUnits="userSpaceOnUse"
       id="clipPath6612"><g
         id="g6616"><rect
           width="66.632217"
           height="24.793383"
           fill="#ffffff"
           id="rect6614"
           x="65.671402"
           y="51.466217"
           style="stroke-width:0.387397" /></g></clipPath><clipPath
       clipPathUnits="userSpaceOnUse"
       id="clipPath6618"><g
         id="g6622"><rect
           width="66.632217"
           height="24.793383"
           fill="#ffffff"
           id="rect6620"
           x="65.671402"
           y="51.466217"
           style="stroke-width:0.387397" /></g></clipPath><clipPath
       clipPathUnits="userSpaceOnUse"
       id="clipPath6624"><g
         id="g6628"><rect
           width="66.632217"
           height="24.793383"
           fill="#ffffff"
           id="rect6626"
           x="65.671402"
           y="51.466217"
           style="stroke-width:0.387397" /></g></clipPath><pattern
       patternUnits="userSpaceOnUse"
       width="75.592557"
       height="282.21914"
       patternTransform="translate(-478.76364,118.8291)"
       id="pattern6636"><rect
         style="fill:none;stroke:none"
         width="75.592552"
         height="282.21915"
         x="5.6191279e-06"
         y="0"
         id="rect6517" /><g
         id="g6634"
         transform="matrix(3.7795276,0,0,3.7795276,478.76364,-118.8291)"><path
           style="fill:none;stroke:#4c5bdc;stroke-width:10;stroke-linecap:butt;stroke-linejoin:miter;stroke-dasharray:none;stroke-opacity:1"
           d="m -121.67288,31.4402 v 74.67048"
           id="path6630" /><path
           style="fill:none;stroke:#2600ff;stroke-width:10;stroke-linecap:butt;stroke-linejoin:miter;stroke-dasharray:none;stroke-opacity:0"
           d="m -111.67235,31.4402 v 74.67048"
           id="path6632" /></g></pattern></defs><g
     inkscape:label="Layer 1"
     inkscape:groupmode="layer"
     id="layer1"
     transform="translate(-17.408278,-18.342111)"><path
       style="fill:#2600ff;fill-opacity:1;fill-rule:nonzero;stroke:none;stroke-width:4.05383;stroke-linecap:round;stroke-linejoin:round;stroke-dasharray:none;stroke-opacity:1"
       d="m 140.97863,95.536987 c 0.35616,1.254861 0.88659,3.72289 2.13697,7.529173 1.47147,4.47931 4.25037,12.3513 7.74142,21.92516 -0.3121,0.33668 -1.25013,1.42733 -2.18259,2.57716 -37.39531,-1.18946 -74.998187,-2.31042 -108.831411,-3.20711 -0.195134,-0.005 -0.390455,-0.0103 -0.585964,-0.0155 -2.191458,2.55767 0.531213,-0.57503 3.311948,-3.88533 31.656556,-0.9023 64.289887,-1.89639 95.348007,-2.86426 a 1.763951,1.3603324 5.3368182 0 0 1.55748,-0.98467 c 0.51474,-1.66274 0.99265,-3.26134 1.42431,-4.68701 1.20651,2.0556 2.22837,3.82139 2.99437,5.19913 1.76642,3.17713 2.96923,5.4806 3.56307,6.57672 -0.52059,-1.13275 -1.64169,-3.47707 -3.12355,-6.79648 -0.78659,-1.762 -1.80831,-4.17957 -2.99938,-7.04012 a 0.67244014,0.78472683 49.406398 0 0 -1.27262,0 c -0.88591,1.21951 -1.94464,2.64564 -3.06335,4.17743 -31.22187,0.30196 -64.007674,0.64241 -95.772633,1.03531 a 2.4541487,3.1597518 28.21142 0 0 -1.918202,0.85213 c -3.421433,3.23052 -6.667597,6.40104 -9.367012,9.24173 a 3.1992672,3.1890573 22.477446 0 0 2.244097,5.38735 c 2.526068,0.0678 5.023618,0.13402 7.491141,0.19849 34.253227,0.89499 72.376949,1.76365 110.241309,2.55031 a 2.8413105,2.3403087 10.945582 0 0 2.50496,-1.36188 c 0.89262,-1.89984 1.70056,-3.83298 2.34121,-5.53189 a 1.2020453,2.5684255 29.754502 0 0 0.14389,-1.75973 c -4.38296,-9.80325 -8.06898,-17.82096 -10.21511,-22.22601 -1.75474,-3.601679 -3.09363,-5.741744 -3.71236,-6.890093 z"
       id="path1017"
       sodipodi:nodetypes="cccccccc"
       inkscape:path-effect="#path-effect8244"
       inkscape:original-d="m 140.97863,95.536987 12.11028,29.853263 -3.09797,5.06943 -117.723242,-3.09799 9.012306,-9.57557 96.600646,-1.97144 2.81635,-5.63269 6.75924,13.51845" /><path
       style="fill:none;stroke:#2600ff;stroke-width:4.05383;stroke-linecap:round;stroke-linejoin:round;stroke-dasharray:none;stroke-opacity:1"
       d="m 160.76139,43.747972 5.06942,-7.885767 12.39193,0.563268"
       id="path1019"
       sodipodi:nodetypes="ccc" /><circle
       style="opacity:0.998192;fill:none;stroke:#2600ff;stroke-width:4.46047;stroke-linecap:round;stroke-linejoin:round;stroke-dasharray:none;stop-color:#000000"
       id="path1073"
       cx="46.79604"
       cy="135.79073"
       r="6.5075898" /><path
       d="M 129.63615,76.259599 H 68.338868 c -1.469829,0 -2.667467,-1.189656 -2.667467,-2.649677 V 54.142929 c 0,-1.487064 1.197638,-2.676713 2.667467,-2.676713 h 61.297282 c 1.46978,0 2.66761,1.189649 2.66761,2.649677 v 19.466989 c 0,1.487061 -1.19783,2.676717 -2.66761,2.676717 z"
       fill="#2600ff"
       id="path3975"
       style="fill:#2600ff;fill-opacity:1;stroke-width:0.387397"
       clip-path="url(#clipPath6624)"
       transform="matrix(0.99008995,0,0,0.66618634,-2.3611768,28.396564)" /><path
       style="display:inline;fill:#2600ff;fill-opacity:1;fill-rule:nonzero;stroke:none;stroke-width:1.79445;stroke-linecap:round;stroke-linejoin:round;stroke-dasharray:none;stroke-opacity:1"
       d="m 146.50639,101.39471 c 0.21685,-2.302646 0.15858,-7.041052 1.30111,-13.815876 1.3891,-8.236815 4.99307,-23.607731 9.36917,-41.258061 -37.34742,1.928317 -83.723004,4.12498 -122.334914,5.981312 0.0034,2.188198 0.0085,4.278152 0.01672,6.245263 0.04321,10.393527 0.109482,20.910403 0.06185,30.561578 19.997788,2.48672 38.266301,4.852518 53.381072,7.001101 21.961889,3.121909 44.189329,7.059173 53.027199,8.471013 -8.92299,-0.69383 -31.45489,-2.06309 -53.537942,-4.16301 C 71.953792,98.912077 52.732324,96.834725 31.718757,94.456908 A 2.8328421,2.8962957 2.5550697 0 1 29.203569,91.644849 C 28.991567,81.327998 28.9132,69.884791 28.809543,58.587674 c -0.02599,-2.832103 -0.06164,-5.91875 -0.102211,-9.186575 a 3.0471584,3.0714218 88.150607 0 1 2.912348,-3.082112 c 39.170556,-2.032033 86.82908,-4.545078 129.54517,-6.611973 a 3.2041133,3.1916006 5.7889921 0 1 3.26185,3.981925 c -4.97562,19.358533 -9.57394,36.41066 -12.48645,44.936885 -2.22091,6.501628 -4.52822,10.640738 -5.43386,12.768886 z"
       id="path6646"
       sodipodi:nodetypes="ccccc"
       inkscape:path-effect="#path-effect8242"
       inkscape:original-d="M 146.50639,101.39471 161.32465,42.903067 31.772764,49.380663 32.054398,91.625843 141.3286,104.58104" /><text
       xml:space="preserve"
       transform="matrix(0.21451521,0,0,0.21451521,12.6016,20.557296)"
       id="text6732"
       style="font-size:37.3333px;line-height:1.25;font-family:Arial;-inkscape-font-specification:'Arial, Normal';font-variant-ligatures:none;letter-spacing:0px;word-spacing:0px;white-space:pre;shape-inside:url(#rect6734);display:inline;fill:#e6e9ee"><tspan
         x="272.93555"
         y="247.58179"
         id="tspan11310"><tspan
           style="font-weight:bold;font-family:sans-serif;-inkscape-font-specification:sans-serif"
           id="tspan11308">K10 STORE</tspan></tspan></text><circle
       style="opacity:0.998192;fill:none;stroke:#2600ff;stroke-width:4.46047;stroke-linecap:round;stroke-linejoin:round;stroke-dasharray:none;stop-color:#000000"
       id="circle8250"
       cx="143.18256"
       cy="137.78218"
       r="6.5075898" /></g></svg>
